<svg width="60" height="60" viewBox="0 0 60 60" fill="none" xmlns="http://www.w3.org/2000/svg">
<path d="M48.7498 33.93L29.9998 52.5L11.2498 33.93C10.013 32.7265 9.03888 31.2801 8.38865 29.6816C7.73841 28.0832 7.42618 26.3674 7.47162 24.6423C7.51706 22.9173 7.91918 21.2204 8.65267 19.6584C9.38616 18.0964 10.4351 16.7032 11.7335 15.5665C13.0319 14.4298 14.5515 13.5742 16.1968 13.0537C17.8421 12.5332 19.5773 12.359 21.2932 12.542C23.0091 12.7251 24.6685 13.2614 26.167 14.1173C27.6654 14.9732 28.9704 16.13 29.9998 17.515C31.0336 16.1401 32.3401 14.9933 33.8375 14.1465C35.3349 13.2997 36.991 12.7711 38.7021 12.5938C40.4132 12.4165 42.1425 12.5943 43.7817 13.116C45.4209 13.6377 46.9348 14.4922 48.2287 15.6259C49.5225 16.7596 50.5683 18.1482 51.3008 19.7047C52.0333 21.2613 52.4366 22.9522 52.4855 24.6718C52.5345 26.3913 52.2279 28.1025 51.5851 29.6981C50.9423 31.2938 49.977 32.7396 48.7498 33.945" stroke="#FD8204" stroke-width="5" stroke-linecap="round" stroke-linejoin="round"/>
</svg>
