<svg width="313" height="51" viewBox="0 0 313 51" fill="none" xmlns="http://www.w3.org/2000/svg">
<path d="M62.4348 16.2872H75.1972V18.4908H70.9737V32.1714H66.5665V18.4908H62.4348V16.2872Z" fill="white"/>
<path d="M80.0634 27.6723H76.758V29.8759C76.758 30.3349 77.0335 30.6104 77.5844 30.6104H80.5225V32.1713H75.289C74.7381 32.1713 74.279 31.9876 73.9117 31.6204C73.5445 31.2531 73.3608 30.7022 73.3608 30.0595V23.816C73.3608 23.0815 73.5445 22.5306 74.0035 22.1633C74.4626 21.7961 75.0135 21.5206 75.6562 21.5206H80.4307V23.0815H77.4007C76.9417 23.0815 76.758 23.4488 76.758 24.0915V26.2032H80.0634V27.6723Z" fill="white"/>
<path d="M85.4807 27.5805L82.1753 21.5206H85.9397L87.6842 24.6424L89.6124 21.5206H91.3569L88.3269 26.0196L91.7241 32.1713H87.9597L86.2152 29.0495L84.1034 32.1713H82.2671L85.4807 27.5805Z" fill="white"/>
<path d="M97.7839 23.0815C97.4166 23.0815 97.1412 23.1733 96.8657 23.2651C96.6821 23.3569 96.4985 23.6324 96.4985 23.9996C96.4985 24.4587 97.233 24.9178 98.7939 25.3769C100.355 25.836 101.089 26.8459 101.089 28.4986C101.089 29.6922 100.722 30.6104 99.9875 31.2531C99.2529 31.8958 98.3348 32.2631 97.233 32.2631H93.6522V30.7022H96.5903C97.1412 30.7022 97.5084 30.6104 97.7839 30.5186C98.0593 30.3349 98.243 29.9677 98.243 29.4168C98.243 28.9577 97.4166 28.4986 95.7639 28.0395C94.1113 27.5805 93.2849 26.5705 93.2849 25.0096C93.2849 23.9078 93.6522 23.0815 94.2949 22.5306C94.9376 21.9797 95.8557 21.6124 96.8657 21.6124H100.171V23.0815H97.7839Z" fill="white"/>
<path d="M102.375 32.1714L105.037 23.5407C105.221 22.8062 105.496 22.3471 105.772 21.9798C106.139 21.6126 106.598 21.429 107.333 21.429C107.884 21.429 108.343 21.6126 108.71 22.0717C108.985 22.3471 109.169 22.8062 109.445 23.4489L112.291 32.1714H108.802L108.159 30.2433H104.578L103.936 32.1714H102.375ZM105.037 28.7742H107.7L106.415 24.3671L105.037 28.7742Z" fill="white"/>
<path d="M118.075 23.0815C117.708 23.0815 117.432 23.1733 117.157 23.2651C116.973 23.3569 116.79 23.6324 116.79 23.9996C116.79 24.4587 117.524 24.9178 119.085 25.3769C120.646 25.836 121.381 26.8459 121.381 28.4986C121.381 29.6922 121.013 30.6104 120.279 31.2531C119.544 31.8958 118.626 32.2631 117.524 32.2631H113.76V30.7022H116.698C117.249 30.7022 117.616 30.6104 117.892 30.5186C118.167 30.3349 118.351 29.9677 118.351 29.4168C118.351 28.9577 117.524 28.4986 115.872 28.0395C114.219 27.5805 113.393 26.5705 113.393 25.0096C113.393 23.9078 113.76 23.0815 114.403 22.5306C115.045 21.9797 115.963 21.6124 116.973 21.6124H120.279V23.0815H118.075Z" fill="white"/>
<path d="M127.991 32.1714V16.2872H137.907V18.4908H132.398V22.898H137.632V25.1015H132.398V30.0596H138.183V32.2632H127.991V32.1714Z" fill="white"/>
<path d="M148.374 30.5186C148.374 31.0695 148.283 31.5286 148.191 31.804C148.007 32.1713 147.64 32.3549 147.089 32.3549C146.446 32.3549 145.987 32.0794 145.62 31.4367L141.947 25.3769V32.1713H140.203V23.4488C140.203 22.8979 140.295 22.4388 140.478 22.1633C140.754 21.7043 141.305 21.5206 141.947 21.5206C142.406 21.5206 142.866 21.6124 143.141 21.8879C143.416 22.0715 143.692 22.4388 143.967 22.8979L146.446 26.9378V21.5206H148.191V30.5186H148.374Z" fill="white"/>
<path d="M158.841 24.826C158.382 24.0915 158.107 23.6324 157.831 23.4488C157.464 23.0815 156.913 22.8979 156.362 22.8979C155.811 22.8979 155.261 23.1734 154.893 23.8161C154.434 24.5506 154.159 25.5606 154.159 26.846C154.159 28.1314 154.342 29.1414 154.618 29.7841C154.985 30.4268 155.536 30.7941 156.27 30.7941C156.638 30.7941 157.005 30.7022 157.372 30.5186C157.648 30.335 157.923 30.0595 158.107 29.7841V26.7542H161.596V36.9457H158.107V31.7122C157.831 31.804 157.464 31.9877 157.005 32.0795C156.546 32.1713 156.179 32.1713 155.903 32.1713C154.251 32.1713 152.965 31.7122 151.955 30.7941C150.945 29.8759 150.486 28.5905 150.486 26.9378C150.486 25.3769 150.945 23.9997 151.863 22.8979C152.781 21.7961 153.975 21.337 155.536 21.337C156.546 21.337 157.464 21.5207 158.199 21.9797C158.841 22.347 159.484 22.8979 160.127 23.7242L158.841 24.826Z" fill="white"/>
<path d="M167.289 17.2971C167.289 17.7562 167.105 18.2153 166.738 18.5826C166.37 18.9498 166.003 19.1334 165.544 19.1334C165.085 19.1334 164.626 18.9498 164.35 18.5826C163.983 18.2153 163.8 17.7562 163.8 17.2971C163.8 16.8381 163.983 16.379 164.35 16.0117C164.718 15.6444 165.085 15.4608 165.544 15.4608C166.003 15.4608 166.462 15.6444 166.738 16.0117C167.105 16.2872 167.289 16.7462 167.289 17.2971ZM163.891 21.5207H167.38V32.1713H163.891V21.5207Z" fill="white"/>
<path d="M177.847 30.5186C177.847 31.0695 177.755 31.5286 177.664 31.804C177.48 32.1713 177.113 32.3549 176.562 32.3549C175.919 32.3549 175.46 32.0794 175.093 31.4367L171.42 25.3769V32.1713H169.676V23.4488C169.676 22.8979 169.767 22.4388 169.951 22.1633C170.226 21.7043 170.777 21.5206 171.42 21.5206C171.879 21.5206 172.338 21.6124 172.614 21.8879C172.889 22.0715 173.165 22.4388 173.44 22.8979L175.919 26.9378V21.5206H177.664V30.5186H177.847Z" fill="white"/>
<path d="M186.57 27.6723H183.264V29.8759C183.264 30.3349 183.54 30.6104 184.091 30.6104H187.029V32.1713H181.704C181.153 32.1713 180.694 31.9876 180.326 31.6204C179.959 31.2531 179.775 30.7022 179.775 30.0595V23.816C179.775 23.0815 179.959 22.5306 180.418 22.1633C180.877 21.7043 181.428 21.5206 182.071 21.5206H186.845V23.0815H183.815C183.356 23.0815 183.173 23.4488 183.173 24.0915V26.2032H186.478V27.6723H186.57Z" fill="white"/>
<path d="M195.751 27.6723H192.446V29.8759C192.446 30.3349 192.721 30.6104 193.272 30.6104H196.21V32.1713H190.977C190.426 32.1713 189.967 31.9876 189.6 31.6204C189.232 31.2531 189.049 30.7022 189.049 30.0595V23.816C189.049 23.0815 189.232 22.5306 189.692 22.1633C190.151 21.7043 190.702 21.5206 191.344 21.5206H196.119V23.0815H193.089C192.63 23.0815 192.446 23.4488 192.446 24.0915V26.2032H195.751V27.6723Z" fill="white"/>
<path d="M198.047 21.5206H203.464C204.382 21.5206 205.208 21.7961 205.943 22.4388C206.586 22.9897 206.953 23.816 206.953 24.826C206.953 25.5605 206.769 26.1114 206.494 26.5705C206.218 27.0296 205.668 27.305 205.025 27.4887L208.055 32.1713H204.199L201.811 26.9378C202.454 26.9378 202.913 26.7541 203.189 26.3869C203.464 26.0196 203.556 25.5605 203.556 24.9178C203.556 24.3669 203.372 23.9078 203.097 23.5406C202.821 23.1733 202.362 22.9897 201.903 22.9897H201.536V32.1713H198.047V21.5206Z" fill="white"/>
<path d="M213.288 17.2971C213.288 17.7562 213.104 18.2153 212.737 18.5826C212.37 18.9498 212.003 19.1334 211.544 19.1334C211.084 19.1334 210.625 18.9498 210.35 18.5826C209.983 18.2153 209.799 17.7562 209.799 17.2971C209.799 16.8381 209.983 16.379 210.35 16.0117C210.717 15.6444 211.084 15.4608 211.544 15.4608C212.003 15.4608 212.37 15.6444 212.737 16.0117C213.104 16.2872 213.288 16.7462 213.288 17.2971ZM209.799 21.5207H213.288V32.1713H209.799V21.5207Z" fill="white"/>
<path d="M223.847 30.5186C223.847 31.0695 223.755 31.5286 223.663 31.804C223.48 32.1713 223.112 32.3549 222.561 32.3549C221.919 32.3549 221.46 32.0794 221.092 31.4367L217.42 25.3769V32.1713H215.675V23.4488C215.675 22.8979 215.767 22.4388 215.951 22.1633C216.226 21.7043 216.777 21.5206 217.42 21.5206C217.879 21.5206 218.338 21.6124 218.613 21.8879C218.889 22.0715 219.164 22.4388 219.44 22.8979L221.919 26.9378V21.5206H223.663V30.5186H223.847Z" fill="white"/>
<path d="M234.222 24.826C233.763 24.0915 233.488 23.6324 233.212 23.4488C232.845 23.0815 232.294 22.8979 231.743 22.8979C231.192 22.8979 230.733 23.1734 230.274 23.8161C229.815 24.5506 229.54 25.5606 229.54 26.846C229.54 28.1314 229.723 29.1414 229.999 29.7841C230.366 30.4268 230.917 30.7941 231.651 30.7941C232.019 30.7941 232.386 30.7022 232.753 30.5186C233.029 30.335 233.304 30.0595 233.488 29.7841V26.7542H236.977V36.9457H233.488V31.7122C233.212 31.804 232.845 31.9877 232.386 32.0795C231.927 32.1713 231.56 32.1713 231.284 32.1713C229.631 32.1713 228.346 31.7122 227.336 30.7941C226.326 29.8759 225.867 28.5905 225.867 26.9378C225.867 25.3769 226.326 23.9997 227.244 22.8979C228.162 21.7961 229.356 21.337 230.917 21.337C231.927 21.337 232.845 21.5207 233.579 21.9797C234.222 22.347 234.865 22.8979 235.508 23.7242L234.222 24.826Z" fill="white"/>
<path d="M256.992 20.8779C256.074 19.6843 255.523 18.9498 255.156 18.6743C254.422 18.0316 253.503 17.7562 252.494 17.7562C251.024 17.7562 249.923 18.4907 249.188 19.8679C248.637 20.9697 248.362 22.347 248.362 24.0915C248.362 25.836 248.637 27.2132 249.188 28.315C249.923 29.6922 250.933 30.4267 252.494 30.4267C253.779 30.4267 254.789 30.1513 255.615 29.5086C256.258 29.0495 256.901 28.2232 257.452 27.0296L259.196 28.315C258.462 29.784 257.543 30.8858 256.35 31.5285C255.156 32.1712 253.687 32.5385 252.034 32.5385C249.555 32.5385 247.535 31.804 245.975 30.1513C244.414 28.5904 243.679 26.5705 243.679 24.0915C243.679 21.6124 244.506 19.5925 246.066 18.0316C247.627 16.4707 249.647 15.6444 252.034 15.6444C253.687 15.6444 255.064 15.9199 256.074 16.4707C256.992 17.0216 257.911 17.9398 258.829 19.2252L256.992 20.8779Z" fill="white"/>
<path d="M265.623 21.429C267.092 21.429 268.378 21.9799 269.388 22.9898C270.398 23.9998 270.948 25.2852 270.948 26.8461C270.948 28.3151 270.398 29.6006 269.388 30.7024C268.378 31.7123 267.092 32.2632 265.623 32.2632C264.154 32.2632 262.869 31.7123 261.859 30.7024C260.849 29.6924 260.298 28.407 260.298 26.8461C260.298 25.377 260.849 24.0916 261.859 22.9898C262.961 21.9799 264.154 21.429 265.623 21.429ZM265.623 31.0696C266.266 31.0696 266.725 30.6105 267 29.7842C267.184 29.1415 267.276 28.2233 267.276 26.9379C267.276 25.6525 267.184 24.6425 267 24.0916C266.725 23.2653 266.266 22.8062 265.623 22.8062C264.98 22.8062 264.521 23.2653 264.246 24.0916C264.062 24.7343 263.97 25.6525 263.97 26.9379C263.97 28.2233 264.062 29.2333 264.246 29.7842C264.521 30.6105 264.98 31.0696 265.623 31.0696Z" fill="white"/>
<path d="M276.274 30.4267C276.274 30.9776 276.09 31.4367 275.723 31.8039C275.356 32.1712 274.896 32.3548 274.346 32.3548C273.795 32.3548 273.336 32.1712 272.968 31.8039C272.601 31.4367 272.417 30.9776 272.417 30.4267C272.417 29.8758 272.601 29.3249 272.968 28.9576C273.336 28.5904 273.795 28.4067 274.346 28.4067C274.896 28.4067 275.356 28.5904 275.723 29.0494C276.09 29.4167 276.274 29.8758 276.274 30.4267Z" fill="white"/>
<path d="M283.711 16.2872H288.118V29.9678H293.902V32.1714H283.803V16.2872H283.711Z" fill="white"/>
<path d="M292.709 21.5206H301.615V23.3569H298.952V32.1713H295.463V23.3569H292.801V21.5206H292.709Z" fill="white"/>
<path d="M313 15.0017V32.1713H307.399C305.93 32.1713 304.829 31.7122 303.91 30.8859C302.992 29.9677 302.533 28.7741 302.533 27.1214C302.533 25.2851 303.084 23.9079 304.186 22.8979C305.288 21.9797 306.665 21.4288 308.501 21.4288H309.603V14.9099H313V15.0017ZM309.511 22.9897H308.96C308.042 22.9897 307.308 23.2652 306.849 23.9079C306.389 24.4588 306.206 25.4687 306.206 26.846C306.206 27.9478 306.389 28.9577 306.849 29.6004C307.308 30.335 307.95 30.7022 308.868 30.7022H309.511V22.9897Z" fill="white"/>
<path d="M46.3942 25.1933C46.3942 36.7621 36.9372 46.2191 25.2766 46.2191C13.616 46.2191 4.15894 36.7621 4.15894 25.1933C4.15894 13.6245 13.616 4.16748 25.2766 4.16748C36.9372 4.16748 46.3942 13.5327 46.3942 25.1933Z" fill="#002169"/>
<path d="M45.5679 25.1932C45.5679 14.0835 36.4782 4.99377 25.2766 4.99377C14.0751 4.99377 4.98535 13.9917 4.98535 25.1932C4.98535 25.1932 4.98535 25.1932 4.98535 25.2851L45.5679 25.1932Z" fill="#002169"/>
<path d="M4.61816 25.5606V25.2851C4.61816 25.2851 4.61816 25.2851 4.61816 25.1933C4.61816 13.9 13.8916 4.71838 25.2767 4.71838C36.6619 4.71838 45.9353 13.9 45.9353 25.1933V25.2851V25.5606H4.61816ZM45.2926 24.9179C45.1089 14.0836 36.2946 5.26928 25.2767 5.26928C14.3506 5.26928 5.44451 14.0836 5.26088 24.9179H45.2926Z" fill="#002169"/>
<path d="M11.4124 21.9794L7.46436 20.9694L7.0971 22.5303L6.27075 22.2549L7.37254 18.215L8.19888 18.3986L7.83162 19.9595L11.7797 20.9694L11.4124 21.9794Z" fill="white"/>
<path d="M13.5242 16.9297L9.94336 13.6244L12.606 10.7781L13.2487 11.329L11.3206 13.4407L12.1469 14.1753L13.9833 12.2471L14.626 12.798L12.7896 14.7262L13.7996 15.6443L15.8196 13.4407L16.4623 13.9916L13.5242 16.9297Z" fill="white"/>
<path d="M18.3904 12.5225L19.3086 9.49258L17.0132 7.8399L18.2068 7.47264L19.6758 8.48261L20.2267 6.73811L21.4203 6.37085L20.594 9.12532L23.1648 10.9616L21.8794 11.4207L20.2267 10.2271L19.584 12.1552L18.3904 12.5225Z" fill="white"/>
<path d="M25.7356 9.30883L26.8374 9.40064C26.8374 9.67609 26.9292 9.95154 27.1128 10.1352C27.2965 10.3188 27.4801 10.4106 27.8474 10.5024C28.2146 10.5943 28.4901 10.5024 28.6737 10.4106C28.8573 10.3188 28.9492 10.1352 29.041 10.0434C29.041 9.95154 29.041 9.85972 28.9491 9.76791C28.8573 9.67609 28.7655 9.58427 28.5819 9.49246C28.4901 9.40064 28.2146 9.30883 27.7555 9.1252C27.2047 8.94157 26.8374 8.66612 26.6538 8.48249C26.3783 8.20704 26.2865 7.83978 26.3783 7.47251C26.3783 7.19707 26.5619 7.01343 26.7456 6.8298C26.9292 6.64617 27.2046 6.55435 27.4801 6.46254C27.7555 6.37072 28.1228 6.37072 28.5819 6.46254C29.2246 6.55435 29.6837 6.8298 30.0509 7.10525C30.3264 7.3807 30.4182 7.83978 30.4182 8.20704L29.3164 8.02341C29.3164 7.74796 29.2246 7.56433 29.1328 7.47251C29.041 7.3807 28.7655 7.28888 28.4901 7.19706C28.2146 7.10525 27.9392 7.19707 27.7555 7.28888C27.6637 7.3807 27.5719 7.47251 27.5719 7.56433C27.5719 7.65614 27.5719 7.74796 27.6637 7.83978C27.7555 7.93159 28.1228 8.11522 28.5819 8.29885C29.041 8.48249 29.4082 8.66612 29.6837 8.84975C29.9591 9.03338 30.0509 9.21701 30.1428 9.40064C30.2346 9.67609 30.2346 9.85972 30.2346 10.227C30.1428 10.5024 30.0509 10.7779 29.8673 10.9615C29.6837 11.1451 29.4082 11.3288 29.041 11.4206C28.6737 11.5124 28.3064 11.5124 27.8474 11.4206C27.2047 11.3288 26.6538 11.0533 26.3783 10.7779C25.8274 10.3188 25.7356 9.85972 25.7356 9.30883Z" fill="white"/>
<path d="M36.2946 15.8279L35.3764 15.0934L35.7437 13.8998L34.091 12.5225L33.081 13.0734L32.1628 12.3389L36.8455 9.85986L37.7636 10.5944L36.2946 15.8279ZM36.0191 13.1652L36.57 11.3289L34.9173 12.2471L36.0191 13.1652Z" fill="white"/>
<path d="M39.1408 17.297L39.5999 18.2152C39.3245 18.3988 39.1408 18.5824 39.1408 18.8579C39.049 19.1333 39.1408 19.317 39.2326 19.6842C39.3244 19.9597 39.5081 20.2351 39.6917 20.3269C39.8753 20.4187 40.059 20.4187 40.2426 20.4187C40.3344 20.4187 40.4262 20.3269 40.4262 20.2351C40.518 20.1433 40.5181 19.9597 40.5181 19.776C40.5181 19.6842 40.4262 19.3169 40.4262 18.8579C40.3344 18.307 40.3344 17.8479 40.4262 17.5725C40.518 17.2052 40.7935 16.9297 41.1608 16.7461C41.4362 16.6543 41.6198 16.6543 41.8953 16.7461C42.1707 16.8379 42.3544 16.9297 42.6298 17.2052C42.8134 17.3888 42.9971 17.7561 43.1807 18.1233C43.4562 18.7661 43.4562 19.2251 43.3643 19.6842C43.2725 20.1433 42.9971 20.4187 42.538 20.6024L41.9871 19.5006C42.1707 19.4088 42.3544 19.2251 42.3544 19.0415C42.4462 18.8579 42.3544 18.6742 42.2625 18.307C42.1707 18.0315 41.9871 17.8479 41.8035 17.6643C41.7117 17.5725 41.528 17.5725 41.4362 17.6643C41.3444 17.6643 41.2526 17.7561 41.2526 17.9397C41.1608 18.1233 41.2526 18.4906 41.3444 18.9497C41.4362 19.5006 41.4362 19.8678 41.4362 20.1433C41.4362 20.4187 41.3444 20.6942 41.1608 20.8778C40.9771 21.0615 40.7935 21.2451 40.5181 21.3369C40.2426 21.4287 39.9672 21.4287 39.6917 21.4287C39.4163 21.3369 39.1408 21.2451 38.9572 20.9696C38.7736 20.6942 38.4981 20.4187 38.3145 19.9597C38.039 19.317 38.039 18.7661 38.1308 18.3988C38.3145 17.9397 38.6817 17.5724 39.1408 17.297Z" fill="white"/>
<path d="M5.81177 28.0395L10.1271 27.0295L10.9535 30.3349L10.2189 30.5185L9.66803 28.0395L8.74987 28.2231L9.30077 30.5185L8.56624 30.7022L8.01535 28.4068L6.82174 28.6822L7.46445 31.2531L6.63811 31.4367L5.81177 28.0395Z" fill="white"/>
<path d="M7.37256 33.2729L11.2288 31.0693L11.6879 31.8957L10.0352 35.0174L12.6061 33.5484L13.0651 34.2829L9.20887 36.4865L8.7498 35.6601L10.3107 32.6302L7.73982 34.0993L7.37256 33.2729Z" fill="white"/>
<path d="M13.2487 38.4146L13.7996 37.8638L15.2687 39.241L14.0751 40.5264C13.7996 40.5264 13.5242 40.4346 13.1569 40.3428C12.7897 40.1591 12.4224 39.9755 12.1469 39.7001C11.7797 39.3328 11.5042 39.0574 11.4124 38.5983C11.3206 38.231 11.2288 37.8638 11.4124 37.4047C11.5042 37.0374 11.6879 36.6701 12.0551 36.3947C12.3306 36.0274 12.6978 35.8438 13.1569 35.6602C13.5242 35.5684 13.9833 35.5684 14.3505 35.6602C14.626 35.752 14.9932 35.9356 15.3605 36.2111C15.8196 36.5783 16.0032 36.9456 16.095 37.4047C16.1868 37.7719 16.095 38.1392 15.9114 38.5065L15.085 38.0474C15.1769 37.8637 15.1769 37.5883 15.1769 37.4047C15.085 37.221 14.9932 37.0374 14.8096 36.8538C14.5342 36.5783 14.1669 36.4865 13.7996 36.4865C13.4324 36.4865 13.0651 36.6701 12.7897 37.0374C12.4224 37.4047 12.2388 37.7719 12.2388 38.1392C12.2388 38.5065 12.4224 38.7819 12.6978 39.0574C12.8815 39.1492 12.9733 39.3328 13.2487 39.3328C13.4324 39.4246 13.616 39.4246 13.7996 39.5164L14.1669 39.0574L13.2487 38.4146Z" fill="white"/>
<path d="M15.0852 41.8118L17.2888 37.9556L18.1151 38.4146L15.9115 42.2709L15.0852 41.8118Z" fill="white"/>
<path d="M17.4724 43.1891L18.8496 38.9656L19.7678 39.241L20.686 42.6382L21.6041 39.7919L22.4305 40.0674L21.0532 44.2909L20.1351 44.0154L19.2169 40.7101L18.2988 43.4646L17.4724 43.1891Z" fill="white"/>
<path d="M23.165 44.5665L23.2569 40.1593L26.7459 40.2511V40.9856L24.2668 40.8938V41.9038L26.654 41.9956V42.7301L24.3586 42.6383V43.8319L26.9295 43.9237V44.6583L23.165 44.5665Z" fill="white"/>
<path d="M28.582 44.4744L27.4802 40.1591L30.7856 39.3328L30.9692 40.0673L28.582 40.6182L28.8575 41.5363L31.1529 40.9855L31.3365 41.72L29.0411 42.2709L29.3165 43.4645L31.8874 42.8218L32.071 43.5563L28.582 44.4744Z" fill="white"/>
<path d="M33.8157 42.8218L31.5203 39.0574L33.2648 38.0474C33.7238 37.772 33.9993 37.6801 34.2747 37.5883C34.5502 37.4965 34.7338 37.5883 34.9174 37.6801C35.1011 37.772 35.2847 37.9556 35.4683 38.1392C35.652 38.4147 35.652 38.6901 35.652 38.9656C35.5602 39.241 35.3765 39.5165 35.1011 39.7919C35.3765 39.7919 35.5602 39.7919 35.7438 39.8837C35.9274 39.9755 36.2029 40.0674 36.5701 40.251L37.4883 40.7101L36.4783 41.261L35.3765 40.8019C35.0093 40.6182 34.7338 40.5264 34.642 40.5264C34.5502 40.5264 34.3666 40.5264 34.2747 40.5264C34.1829 40.5264 33.9993 40.6182 33.8157 40.7101L33.632 40.8019L34.5502 42.3627L33.8157 42.8218ZM33.2648 40.1592L33.9075 39.7919C34.2747 39.5165 34.5502 39.4246 34.642 39.3328C34.7338 39.241 34.7338 39.1492 34.7338 39.0574C34.7338 38.9656 34.7338 38.8737 34.642 38.6901C34.5502 38.5983 34.4584 38.5065 34.3666 38.4147C34.2747 38.4147 34.0911 38.4147 33.9993 38.4147C33.9075 38.4147 33.7238 38.5983 33.3566 38.7819L32.7139 39.1492L33.2648 40.1592Z" fill="white"/>
<path d="M38.3146 39.7003L35.2847 36.4867L36.0192 35.844L39.0491 39.0575L38.3146 39.7003Z" fill="white"/>
<path d="M40.2427 37.772L36.5701 35.2012L37.121 34.4667L40.7018 34.5585L38.2228 32.9058L38.6818 32.1713L42.3545 34.7421L41.8036 35.4766H38.4064L40.7936 37.1293L40.2427 37.772Z" fill="white"/>
<path d="M42.4463 30.335L41.7118 30.1513L42.2627 28.2232L44.0072 28.7741C44.099 29.0495 44.1908 29.325 44.1908 29.6923C44.1908 30.0595 44.1908 30.4268 44.099 30.794C43.9154 31.2531 43.7318 31.6204 43.4563 31.8958C43.1809 32.1713 42.8136 32.3549 42.4463 32.4467C42.0791 32.5385 41.62 32.4467 41.2527 32.3549C40.7936 32.2631 40.4264 31.9877 40.1509 31.7122C39.8755 31.4368 39.6919 31.0695 39.6 30.6104C39.5082 30.2431 39.6 29.8759 39.6919 29.5086C39.8755 28.9577 40.1509 28.5905 40.4264 28.315C40.7018 28.0396 41.0691 27.9478 41.5282 27.9478L41.4364 28.8659C41.2527 28.8659 40.9773 28.9577 40.7936 29.0495C40.61 29.1414 40.5182 29.4168 40.4264 29.6004C40.3346 29.9677 40.3346 30.335 40.5182 30.6104C40.7018 30.8859 40.9773 31.1613 41.4364 31.2531C41.9873 31.4368 42.3545 31.4368 42.7218 31.2531C43.089 31.0695 43.2727 30.794 43.3645 30.4268C43.4563 30.2432 43.4563 30.0595 43.4563 29.7841C43.4563 29.6004 43.3645 29.4168 43.3645 29.2332L42.8136 29.0495L42.4463 30.335Z" fill="white"/>
<path d="M4.70996 25.6523V24.8259H45.9352V25.6523H4.70996Z" fill="white"/>
<path d="M27.7556 0.219238H22.9812V4.6264H27.7556V0.219238Z" fill="white"/>
<path d="M19.2169 5.45263L14.8097 7.38076L12.9734 3.24905L17.3805 1.32092L19.2169 5.45263Z" fill="white"/>
<path d="M11.6879 9.58436L8.47432 13.0734L5.16895 10.0434L8.3825 6.55444L11.6879 9.58436Z" fill="white"/>
<path d="M6.4543 16.3788L4.98524 20.8778L0.761719 19.4088L2.23077 14.9098L6.4543 16.3788Z" fill="white"/>
<path d="M4.38821 24.6383L0 25.0468L0.442487 29.8006L4.83069 29.3922L4.38821 24.6383Z" fill="white"/>
<path d="M5.99542 32.9973L8.38263 37.2208L4.43455 39.3326L2.13916 35.2009L5.99542 32.9973Z" fill="white"/>
<path d="M10.8616 40.0671L14.7179 42.9134L11.9634 46.4942L8.19897 43.648L10.8616 40.0671Z" fill="white"/>
<path d="M18.115 44.5663L22.7976 45.6681L21.7876 49.9834L17.105 48.8816L18.115 44.5663Z" fill="white"/>
<path d="M26.6538 45.8518L31.3364 44.9336L32.1628 49.2489L27.4802 50.1671L26.6538 45.8518Z" fill="white"/>
<path d="M34.9172 43.4644L38.8653 40.8018L41.3443 44.4744L37.3963 47.137L34.9172 43.4644Z" fill="white"/>
<path d="M41.5281 38.0473L44.0071 34.0074L47.8634 36.3947L45.2925 40.4346L41.5281 38.0473Z" fill="white"/>
<path d="M45.3843 30.4266L46.027 25.744L50.4341 26.3867L49.7914 31.0693L45.3843 30.4266Z" fill="white"/>
<path d="M45.8433 21.8879L44.4661 17.3889L48.7814 16.1035L50.0668 20.6943L45.8433 21.8879Z" fill="white"/>
<path d="M42.7216 13.9916L39.6917 10.3189L43.0888 7.47266L46.2106 11.1453L42.7216 13.9916Z" fill="white"/>
<path d="M36.6618 7.93169L32.4382 5.81992L34.3664 1.78003L38.6817 3.98361L36.6618 7.93169Z" fill="white"/>
<path d="M38.8655 25.1931C38.8655 32.6302 32.8056 38.69 25.2767 38.69C17.8396 38.69 11.688 32.6302 11.688 25.1931C11.688 17.756 17.7478 11.6962 25.2767 11.6962C32.7138 11.6962 38.8655 17.756 38.8655 25.1931Z" fill="white"/>
<path d="M22.7976 32.2628V31.9873C23.3485 31.9873 23.7158 31.8955 23.8994 31.8037C24.083 31.7119 24.1748 31.4364 24.1748 31.0692V25.2848C24.1748 24.9175 24.083 24.6421 23.8994 24.5503C23.7158 24.4584 23.3485 24.3666 22.7976 24.3666V24.0912H26.6539H31.7037V25.2848V26.4784H31.3365C31.2447 25.7439 30.8774 25.193 30.4183 24.9175C29.9592 24.6421 29.1329 24.4585 28.1229 24.4585H27.3884C27.1129 24.4585 26.9293 24.5503 26.7457 24.6421C26.6539 24.7339 26.5621 24.9175 26.5621 25.1012V27.8556H26.8375C27.572 27.8556 28.0311 27.672 28.3984 27.3966C28.7656 27.1211 28.9493 26.662 29.0411 26.0193H29.4083V28.0393V30.0592H29.0411C28.9493 29.4165 28.6738 28.8656 28.3984 28.5902C28.0311 28.3147 27.572 28.1311 26.8375 28.1311H26.5621V31.0692C26.5621 31.3446 26.6539 31.5283 26.7457 31.6201C26.9293 31.7119 27.1129 31.8037 27.3884 31.8037H27.7557C28.8575 31.8037 29.6838 31.6201 30.3265 31.3446C30.9692 30.9774 31.5201 30.4265 31.8874 29.6919H32.3464L32.071 30.9774L31.7956 32.2628H26.6539H22.7976Z" fill="#002169"/>
<path d="M26.6539 32.4464H22.7976V32.3546H22.8894H22.7976V32.4464H22.7058V32.3546V32.0792C22.7058 31.9874 22.7976 31.9874 22.7976 31.9874C23.3485 31.9874 23.7158 31.8955 23.8076 31.8037C23.8994 31.7119 23.9912 31.5283 23.9912 31.161V25.3766C23.9912 25.0094 23.8994 24.8257 23.8076 24.7339C23.7158 24.6421 23.3485 24.5503 22.7976 24.5503C22.7058 24.5503 22.7058 24.4585 22.7058 24.4585V24.0912V23.9994H22.7976H26.6539H31.7038H31.7956V24.0912V25.2848V26.4784V26.5702H31.7038H31.3365C31.2447 26.5702 31.2447 26.5702 31.2447 26.4784C31.1529 25.7439 30.8774 25.2848 30.4183 25.0094C29.9593 24.7339 29.2247 24.5503 28.1229 24.5503H27.3884C27.113 24.5503 26.9293 24.6421 26.8375 24.6421C26.7457 24.7339 26.7457 24.8257 26.7457 25.0094V27.7638H26.8375C27.572 27.7638 28.0311 27.672 28.3066 27.3966C28.582 27.1211 28.8575 26.7539 28.9493 26.1111C28.9493 26.0193 29.0411 26.0193 29.0411 26.0193H29.4084H29.5002V26.1111V28.1311V30.151V30.2429H29.4084H29.0411C28.9493 30.2429 28.9493 30.2429 28.9493 30.151C28.8575 29.5083 28.6738 29.0493 28.3066 28.7738C28.0311 28.4984 27.4802 28.4065 26.8375 28.4065H26.7457V31.161C26.7457 31.3446 26.8375 31.5283 26.9293 31.6201C27.0212 31.7119 27.2048 31.8037 27.572 31.8037H27.9393C29.0411 31.8037 29.8674 31.6201 30.4183 31.3447C31.061 31.0692 31.5201 30.5183 31.8874 29.7838L31.9792 29.692H32.4383C32.4383 29.692 32.5301 29.692 32.5301 29.7838V29.8756L32.2547 31.161L31.8874 32.3546C31.8874 32.4464 31.7956 32.4464 31.7956 32.4464H26.6539ZM26.6539 32.171H31.7038L31.9792 30.9774L32.2547 29.8756H32.071C31.7038 30.6101 31.1529 31.161 30.5102 31.5283C29.8674 31.8955 28.9493 31.9874 27.8475 32.0792H27.4802C27.113 32.0792 26.9293 31.9874 26.7457 31.8955C26.5621 31.7119 26.4703 31.4365 26.4703 31.161V28.2229V28.1311H26.5621H26.8375C27.572 28.1311 28.1229 28.3147 28.4902 28.5902C28.8575 28.8656 29.0411 29.3247 29.2247 29.9674H29.4084V28.0393V26.1111H29.2247C29.1329 26.7539 28.8575 27.2129 28.4902 27.4884C28.1229 27.7638 27.572 27.9475 26.8375 27.9475H26.5621H26.4703V27.8556V25.1012C26.4703 24.8257 26.5621 24.6421 26.6539 24.5503C26.8375 24.4585 27.0212 24.3667 27.3884 24.3667H28.0311C29.1329 24.3667 29.8674 24.5503 30.4183 24.8257C30.9692 25.1012 31.2447 25.6521 31.3365 26.3866H31.5201V25.2848V24.183H26.5621H22.7976V24.2748C23.2567 24.2748 23.624 24.3667 23.8076 24.5503C23.9912 24.7339 24.083 25.0094 24.083 25.3766V31.161C24.083 31.5283 23.9912 31.8037 23.8076 31.9874C23.624 32.0792 23.2567 32.171 22.7976 32.2628V32.3546H26.6539V32.171Z" fill="#002169"/>
<path d="M22.6141 30.794V18.5825H22.5223C20.9614 18.5825 19.3087 18.858 18.5742 19.5007C17.8397 20.1434 17.3806 20.6943 17.1969 22.1633L16.3706 21.7043L16.4624 19.317V16.838H24.1749H31.8875V19.2252L31.9793 21.7043L31.0611 22.1633C30.8775 20.6943 30.4184 20.1434 29.6839 19.5007C28.9494 18.858 27.2049 18.5825 25.7358 18.5825H25.644V30.794C25.644 31.5285 26.1949 32.0794 26.4703 32.2631C26.7458 32.5385 26.7458 32.5385 27.8476 32.6303V33.8239H24.1749H20.5023V32.6303C21.3287 32.4467 21.4205 32.4467 21.6959 32.2631C21.9714 31.9876 22.6141 31.4367 22.6141 30.794Z" fill="#002169"/>
<path d="M24.175 34.0075H20.4105V32.5384H20.5023C21.3287 32.263 21.4205 32.3548 21.6959 32.1711C21.9714 31.8957 22.6141 31.4366 22.6141 30.7939V18.6742C21.145 18.6742 19.4005 19.0415 18.7578 19.5924C18.0233 20.2351 17.656 20.786 17.3806 22.1632V22.3469L16.2788 21.7041L16.3706 19.2251V16.7461H24.2668H31.9793V19.3169L32.0711 21.8878L30.9693 22.5305V22.3469C30.7857 20.8778 30.3266 20.3269 29.5921 19.776C28.9494 19.2251 27.2049 18.8579 25.7358 18.8579V30.9775C25.7358 31.6203 26.1949 32.1711 26.5622 32.3548C26.9294 32.6302 26.7458 32.6302 27.8476 32.722H27.9394V34.1911H24.175V34.0075ZM20.5941 33.732H24.175H27.664V32.8139C26.7458 32.722 26.654 32.6302 26.3785 32.4466C26.0113 32.1711 25.4604 31.6203 25.4604 30.7939V18.3988H25.5522H25.644C27.2049 18.3988 28.9494 18.6742 29.6839 19.4088C30.4184 20.0515 30.8775 20.6024 31.0611 21.9796L31.612 21.6123L31.5202 19.2251V16.9297H23.9913H16.3706V19.2251L16.2788 21.6123L16.8297 21.9796C17.0133 20.6024 17.5642 20.0515 18.2069 19.4088C19.0333 18.766 20.686 18.3988 22.2468 18.3988H22.7977V30.7939C22.7977 31.6203 22.155 32.1711 21.7878 32.3548C21.4205 32.6302 21.3287 32.5384 20.5941 32.722V33.732Z" fill="white"/>
<path d="M3.42456 25.1931C3.42456 13.1652 13.2488 3.43274 25.2767 3.43274C37.3964 3.43274 47.1289 13.1652 47.1289 25.1931C47.1289 37.2209 37.3046 46.9534 25.2767 46.9534C13.157 46.9534 3.42456 37.2209 3.42456 25.1931ZM4.8018 25.1931C4.8018 36.3946 13.9834 45.4844 25.2767 45.4844C36.5701 45.4844 45.6598 36.3946 45.7516 25.1931C45.7516 13.9916 36.5701 4.90179 25.2767 4.90179C13.9834 4.90179 4.8018 13.9916 4.8018 25.1931Z" fill="white"/>
</svg>
