<svg width="145" height="36" viewBox="0 0 145 36" fill="none" xmlns="http://www.w3.org/2000/svg">
<path d="M28.7442 23.3648C28.7221 23.3425 28.7 23.298 28.6779 23.2758C29.164 21.8065 29.4291 20.226 29.4291 18.5787C29.4291 16.9315 29.164 15.3732 28.6779 13.8817C28.7 13.8595 28.7221 13.815 28.7442 13.7927L29.5838 12.5016C29.8268 12.1454 29.8268 11.6779 29.628 11.2995L28.5011 9.34055C28.2802 8.96212 27.8824 8.73951 27.4405 8.76177L25.916 8.85081C25.8718 8.85081 25.8276 8.85081 25.8055 8.87307C23.7506 6.5357 20.9445 4.84389 17.7628 4.19832C17.7407 4.1538 17.7407 4.13154 17.7186 4.08702L17.0336 2.70686C16.8348 2.32842 16.4371 2.08356 16.0172 2.08356H13.7635C13.3437 2.08356 12.946 2.32842 12.7471 2.70686L12.0622 4.08702C12.0401 4.13154 12.0401 4.1538 12.018 4.19832C8.83626 4.84389 6.03015 6.5357 3.97529 8.89533C3.9311 8.89533 3.909 8.89533 3.86481 8.87307L2.34023 8.78403C1.92042 8.76177 1.50061 8.98438 1.27965 9.36281L0.152792 11.3218C-0.0681612 11.7002 -0.0460658 12.1677 0.196983 12.5238L1.03661 13.815C1.0587 13.815 1.0808 13.8595 1.10289 13.8817C0.616794 15.3509 0.35165 16.9315 0.35165 18.5787C0.35165 20.226 0.616794 21.7843 1.10289 23.2758C1.0808 23.298 1.0587 23.3425 1.03661 23.3648L0.196983 24.6559C-0.0460658 25.0121 -0.0460658 25.4796 0.152792 25.858L1.27965 27.8169C1.50061 28.1954 1.89832 28.418 2.34023 28.3957L3.86481 28.3067C3.909 28.3067 3.95319 28.3067 3.97529 28.2844C6.03015 30.644 8.85835 32.3359 12.0401 32.9814C12.0622 33.0259 12.0622 33.0482 12.0843 33.0927L12.7692 34.4729C12.9681 34.8513 13.3437 35.0962 13.7856 35.0962H16.0172C16.4371 35.0962 16.8348 34.8513 17.0336 34.4729L17.7186 33.0927C17.7407 33.0482 17.7407 33.0259 17.7628 32.9814C20.9445 32.3359 23.7506 30.6663 25.8276 28.3067C25.8718 28.3067 25.916 28.3067 25.9381 28.3289L27.4626 28.418C27.8824 28.4402 28.3023 28.2176 28.5232 27.8392L29.6501 25.8803C29.871 25.5018 29.8489 25.0343 29.6059 24.6782L28.7442 23.3648ZM25.1426 21.4726L22.4691 26.1251C21.4527 27.8837 19.5746 28.9745 17.5639 28.9745H12.2168C10.1841 28.9745 8.30597 27.8837 7.31168 26.1251L4.63815 21.4726C3.62176 19.714 3.62176 17.5325 4.63815 15.7516L7.31168 11.0991C8.32807 9.34055 10.2062 8.24977 12.2168 8.24977H17.5418C19.5746 8.24977 21.4527 9.34055 22.447 11.0991L25.1205 15.7516C26.159 17.5102 26.159 19.6918 25.1426 21.4726Z" fill="white"/>
<path d="M24.3251 18.4897C24.3251 18.8681 24.2809 19.2688 24.1925 19.6473H17.122V27.1714H12.6588V19.6473H5.58826C5.49988 19.2688 5.45569 18.8904 5.45569 18.4897C5.45569 17.6438 5.67664 16.7979 6.09645 16.041L6.95817 14.5273C9.54333 14.1711 12.1948 13.993 14.8683 13.993C17.5418 13.993 20.1933 14.1711 22.7784 14.5273L23.6402 16.041C24.1042 16.8202 24.3251 17.6661 24.3251 18.4897Z" fill="white"/>
<path d="M44.7129 11.6649V24H40.8317V11.6649H34.7645V8.38592H50.8024V11.6649H44.7129ZM67.2169 20.9218V24H52.6512V8.38592H67.2169V11.4641H56.5101V14.6539H67.2169V17.7098H56.5101V20.9218H67.2169ZM81.2804 16.0145L88.4852 24H83.4441L78.5591 18.3566H78.4252L73.451 24H68.6999L75.9047 15.9476L69.0791 8.38592H74.0979L78.6483 13.5832H78.7821L83.3994 8.38592H88.1952L81.2804 16.0145ZM97.6327 24.2231H96.9858C95.8408 24.2231 94.8147 24.1487 93.9076 24C93.0154 23.8662 92.19 23.6357 91.4316 23.3085C90.6732 22.9665 90.0561 22.4981 89.5803 21.9033C89.1044 21.2936 88.7996 20.5575 88.6657 19.695H92.77C93.0079 20.3344 93.4912 20.7582 94.2199 20.9664C94.9485 21.1597 96.0341 21.2564 97.4765 21.2564C99.0082 21.2564 100.116 21.1225 100.8 20.8549C101.484 20.5872 101.826 20.1113 101.826 19.4273V19.2489C101.826 18.7284 101.648 18.3492 101.291 18.1113C100.949 17.8733 100.309 17.7321 99.3725 17.6874L94.7775 17.5313C92.7849 17.4718 91.3424 17.1075 90.4502 16.4383C89.5579 15.7543 89.1118 14.7059 89.1118 13.2932V13.1371C89.1118 11.3823 89.7364 10.1183 90.9855 9.34507C92.2346 8.55693 94.1901 8.16286 96.852 8.16286H97.3873C102.265 8.16286 104.964 9.72427 105.484 12.8471H101.38C101.172 12.1928 100.718 11.7467 100.019 11.5087C99.3205 11.2559 98.3093 11.1295 96.9858 11.1295C95.5136 11.1295 94.4875 11.2634 93.9076 11.531C93.3425 11.7987 93.06 12.2448 93.06 12.8694V12.9363C93.06 13.4568 93.231 13.836 93.573 14.0739C93.915 14.3118 94.5619 14.4457 95.5136 14.4754L100.109 14.6539C102.116 14.7282 103.559 15.1 104.436 15.7691C105.313 16.4235 105.752 17.4495 105.752 18.8474V19.0481C105.752 20.9367 105.075 22.275 103.722 23.0632C102.384 23.8364 100.354 24.2231 97.6327 24.2231ZM119.415 8.38592L126.776 24H122.427L120.821 20.4757H112.054L110.426 24H106.188L113.527 8.38592H119.415ZM116.516 11.1965H116.359L113.482 17.3975H119.371L116.516 11.1965ZM136.102 24.2231H135.455C134.31 24.2231 133.284 24.1487 132.376 24C131.484 23.8662 130.659 23.6357 129.9 23.3085C129.142 22.9665 128.525 22.4981 128.049 21.9033C127.573 21.2936 127.268 20.5575 127.135 19.695H131.239C131.477 20.3344 131.96 20.7582 132.689 20.9664C133.417 21.1597 134.503 21.2564 135.945 21.2564C137.477 21.2564 138.585 21.1225 139.269 20.8549C139.953 20.5872 140.295 20.1113 140.295 19.4273V19.2489C140.295 18.7284 140.117 18.3492 139.76 18.1113C139.418 17.8733 138.778 17.7321 137.841 17.6874L133.246 17.5313C131.254 17.4718 129.811 17.1075 128.919 16.4383C128.027 15.7543 127.581 14.7059 127.581 13.2932V13.1371C127.581 11.3823 128.205 10.1183 129.454 9.34507C130.703 8.55693 132.659 8.16286 135.321 8.16286H135.856C140.734 8.16286 143.433 9.72427 143.953 12.8471H139.849C139.641 12.1928 139.187 11.7467 138.488 11.5087C137.789 11.2559 136.778 11.1295 135.455 11.1295C133.982 11.1295 132.956 11.2634 132.376 11.531C131.811 11.7987 131.529 12.2448 131.529 12.8694V12.9363C131.529 13.4568 131.7 13.836 132.042 14.0739C132.384 14.3118 133.031 14.4457 133.982 14.4754L138.577 14.6539C140.585 14.7282 142.027 15.1 142.905 15.7691C143.782 16.4235 144.221 17.4495 144.221 18.8474V19.0481C144.221 20.9367 143.544 22.275 142.191 23.0632C140.853 23.8364 138.823 24.2231 136.102 24.2231Z" fill="white"/>
<path d="M37.6188 26.7054V30.0903H37.0221V26.7054H35.3603V26.1868H39.2862V26.7054H37.6188ZM41.5223 29.265H42.0855C42.0038 29.5661 41.842 29.7892 41.6004 29.9342C41.3625 30.0754 41.0316 30.1461 40.6078 30.1461H40.5018C39.9999 30.1461 39.6207 30.0345 39.3642 29.8115C39.1114 29.5884 38.985 29.2204 38.985 28.7073V28.5233C38.985 28.0103 39.1114 27.6422 39.3642 27.4192C39.6207 27.1924 39.9999 27.079 40.5018 27.079H40.6022C41.1041 27.079 41.4814 27.1887 41.7342 27.408C41.9907 27.6274 42.119 27.9954 42.119 28.5122V28.7296H39.5371C39.5408 29.1163 39.6245 29.3747 39.788 29.5048C39.9553 29.6349 40.2118 29.6999 40.5576 29.6999C40.8327 29.6999 41.0446 29.6702 41.1933 29.6107C41.342 29.5512 41.4517 29.436 41.5223 29.265ZM40.552 27.4917C40.2286 27.4917 39.9851 27.5512 39.8215 27.6701C39.6579 27.7854 39.565 28.0103 39.5427 28.3449H41.5669V28.317C41.5669 28.0233 41.4796 27.8132 41.3048 27.6868C41.1338 27.5567 40.8829 27.4917 40.552 27.4917ZM44.3742 28.5735L45.7405 30.0903H45.0155L43.9839 28.9025H43.9616L42.9132 30.0903H42.2273L43.5935 28.5847L42.311 27.1348H43.0359L43.995 28.2389H44.0173L44.9932 27.1348H45.6624L44.3742 28.5735ZM48.0777 29.6498V30.0903H47.6707C47.2729 30.0903 46.9941 30.0178 46.8342 29.8728C46.6781 29.7278 46.6 29.4732 46.6 29.1088V27.5753H45.875V27.1348H46.6V26.1868H47.1521V27.1348H48.0777V27.5753H47.1521V29.0029C47.1521 29.2743 47.2004 29.4509 47.297 29.5327C47.3974 29.6107 47.5833 29.6498 47.8547 29.6498H48.0777ZM48.6207 26.1868H49.1727V26.6664H48.6207V26.1868ZM48.6207 27.1348H49.1727V30.0903H48.6207V27.1348ZM50.4198 26.1868V30.0903H49.8677V26.1868H50.4198ZM53.5629 29.265H54.1261C54.0443 29.5661 53.8826 29.7892 53.641 29.9342C53.403 30.0754 53.0722 30.1461 52.6484 30.1461H52.5424C52.0405 30.1461 51.6613 30.0345 51.4048 29.8115C51.152 29.5884 51.0256 29.2204 51.0256 28.7073V28.5233C51.0256 28.0103 51.152 27.6422 51.4048 27.4192C51.6613 27.1924 52.0405 27.079 52.5424 27.079H52.6428C53.1447 27.079 53.522 27.1887 53.7748 27.408C54.0313 27.6274 54.1596 27.9954 54.1596 28.5122V28.7296H51.5777C51.5814 29.1163 51.665 29.3747 51.8286 29.5048C51.9959 29.6349 52.2524 29.6999 52.5982 29.6999C52.8733 29.6999 53.0852 29.6702 53.2339 29.6107C53.3826 29.5512 53.4923 29.436 53.5629 29.265ZM52.5926 27.4917C52.2692 27.4917 52.0256 27.5512 51.8621 27.6701C51.6985 27.7854 51.6056 28.0103 51.5832 28.3449H53.6075V28.317C53.6075 28.0233 53.5201 27.8132 53.3454 27.6868C53.1744 27.5567 52.9235 27.4917 52.5926 27.4917ZM58.1979 30.1461H58.092C56.9172 30.1461 56.261 29.8022 56.1235 29.1144H56.7481C56.8261 29.3263 56.9841 29.4695 57.2221 29.5438C57.4637 29.6182 57.7797 29.6553 58.17 29.6553C58.6273 29.6553 58.9675 29.6051 59.1905 29.5048C59.4136 29.4007 59.5251 29.2241 59.5251 28.975V28.9304C59.5251 28.7334 59.4638 28.594 59.3411 28.5122C59.2184 28.4304 58.9879 28.382 58.6496 28.3672L57.5622 28.3226C57.0975 28.304 56.7629 28.2148 56.5585 28.0549C56.3577 27.895 56.2573 27.6515 56.2573 27.3244V27.2909C56.2573 26.882 56.406 26.5864 56.7034 26.4043C57.0046 26.2221 57.447 26.131 58.0306 26.131H58.1422C59.2575 26.131 59.8857 26.4823 60.027 27.185H59.408C59.3448 26.9693 59.2017 26.8225 58.9786 26.7444C58.7556 26.6626 58.4526 26.6217 58.0697 26.6217C57.6384 26.6217 57.3299 26.6701 57.144 26.7667C56.9581 26.8634 56.8652 27.0214 56.8652 27.2407V27.2575C56.8652 27.4545 56.9246 27.5939 57.0436 27.6757C57.1663 27.7575 57.3968 27.8058 57.7351 27.8207L58.8225 27.8653C59.2909 27.8839 59.6255 27.9731 59.8263 28.133C60.027 28.2928 60.1274 28.5363 60.1274 28.8635V28.9137C60.1274 29.3672 59.9619 29.6869 59.6311 29.8728C59.3002 30.055 58.8225 30.1461 58.1979 30.1461ZM63.1855 29.265H63.7488C63.667 29.5661 63.5053 29.7892 63.2636 29.9342C63.0257 30.0754 62.6948 30.1461 62.271 30.1461H62.1651C61.6632 30.1461 61.284 30.0345 61.0275 29.8115C60.7747 29.5884 60.6483 29.2204 60.6483 28.7073V28.5233C60.6483 28.0103 60.7747 27.6422 61.0275 27.4192C61.284 27.1924 61.6632 27.079 62.1651 27.079H62.2654C62.7673 27.079 63.1447 27.1887 63.3975 27.408C63.654 27.6274 63.7822 27.9954 63.7822 28.5122V28.7296H61.2003C61.204 29.1163 61.2877 29.3747 61.4513 29.5048C61.6186 29.6349 61.8751 29.6999 62.2208 29.6999C62.4959 29.6999 62.7078 29.6702 62.8565 29.6107C63.0052 29.5512 63.1149 29.436 63.1855 29.265ZM62.2152 27.4917C61.8918 27.4917 61.6483 27.5512 61.4847 27.6701C61.3212 27.7854 61.2282 28.0103 61.2059 28.3449H63.2302V28.317C63.2302 28.0233 63.1428 27.8132 62.9681 27.6868C62.7971 27.5567 62.5461 27.4917 62.2152 27.4917ZM66.0202 27.1348H66.2767V27.6144H65.931C65.6075 27.6144 65.3603 27.6757 65.1893 27.7984C65.0183 27.9173 64.9328 28.1385 64.9328 28.462V30.0903H64.3807V27.1348H64.9328V27.6311H64.9606C65.0908 27.3002 65.4439 27.1348 66.0202 27.1348ZM69.7561 27.1348L68.4456 30.0903H67.6928L66.3879 27.1348H67.0013L68.0776 29.5996H68.1055L69.1817 27.1348H69.7561ZM70.1423 26.1868H70.6944V26.6664H70.1423V26.1868ZM70.1423 27.1348H70.6944V30.0903H70.1423V27.1348ZM72.9285 30.1461H72.8058C72.3114 30.1461 71.9359 30.0345 71.6794 29.8115C71.4266 29.5884 71.3002 29.2222 71.3002 28.7129V28.5122C71.3002 27.9991 71.4266 27.6329 71.6794 27.4136C71.9322 27.1905 72.3076 27.079 72.8058 27.079H72.9285C73.7612 27.079 74.2445 27.3932 74.3784 28.0214H73.8152C73.7482 27.8393 73.6386 27.7166 73.4861 27.6534C73.3374 27.5865 73.1348 27.553 72.8783 27.553C72.5251 27.553 72.2649 27.6218 72.0976 27.7593C71.934 27.8932 71.8522 28.1571 71.8522 28.5512V28.6739C71.8522 29.068 71.934 29.3338 72.0976 29.4713C72.2649 29.6051 72.5251 29.6721 72.8783 29.6721C73.1348 29.6721 73.3374 29.6405 73.4861 29.5773C73.6386 29.5103 73.7482 29.3858 73.8152 29.2036H74.3784C74.2445 29.8319 73.7612 30.1461 72.9285 30.1461ZM77.3554 29.265H77.9186C77.8369 29.5661 77.6751 29.7892 77.4335 29.9342C77.1956 30.0754 76.8647 30.1461 76.4409 30.1461H76.3349C75.833 30.1461 75.4538 30.0345 75.1973 29.8115C74.9445 29.5884 74.8181 29.2204 74.8181 28.7073V28.5233C74.8181 28.0103 74.9445 27.6422 75.1973 27.4192C75.4538 27.1924 75.833 27.079 76.3349 27.079H76.4353C76.9372 27.079 77.3145 27.1887 77.5673 27.408C77.8238 27.6274 77.9521 27.9954 77.9521 28.5122V28.7296H75.3702C75.3739 29.1163 75.4576 29.3747 75.6211 29.5048C75.7884 29.6349 76.0449 29.6999 76.3907 29.6999C76.6658 29.6999 76.8777 29.6702 77.0264 29.6107C77.1751 29.5512 77.2848 29.436 77.3554 29.265ZM76.3851 27.4917C76.0617 27.4917 75.8182 27.5512 75.6546 27.6701C75.491 27.7854 75.3981 28.0103 75.3758 28.3449H77.4V28.317C77.4 28.0233 77.3127 27.8132 77.1379 27.6868C76.9669 27.5567 76.716 27.4917 76.3851 27.4917ZM82.8938 28.2333V30.0903H82.3473V29.5884H82.3195C82.1633 29.9602 81.7544 30.1461 81.0926 30.1461C80.2673 30.1461 79.8547 29.8449 79.8547 29.2427V29.2036C79.8547 28.9248 79.9365 28.7148 80.1 28.5735C80.2636 28.4322 80.5164 28.3542 80.8584 28.3393L82.3418 28.278V28.211C82.3418 27.9285 82.2693 27.7389 82.1243 27.6422C81.9793 27.5419 81.747 27.4917 81.4272 27.4917C81.1707 27.4917 80.9718 27.5288 80.8306 27.6032C80.693 27.6738 80.5963 27.7965 80.5406 27.9712H79.9829C80.0498 27.6701 80.1967 27.4471 80.4235 27.3021C80.6502 27.1534 80.9774 27.079 81.4049 27.079H81.5053C81.9886 27.079 82.3399 27.1645 82.5593 27.3355C82.7823 27.5065 82.8938 27.8058 82.8938 28.2333ZM80.4123 29.1925V29.2204C80.4123 29.5735 80.6874 29.7501 81.2376 29.7501C81.5871 29.7501 81.8585 29.6776 82.0518 29.5327C82.2451 29.384 82.3418 29.1758 82.3418 28.9081V28.6572L81.009 28.7129C80.8045 28.7204 80.654 28.7631 80.5573 28.8412C80.4606 28.9192 80.4123 29.0364 80.4123 29.1925ZM86.4386 28.2222V30.0903H85.8921V28.3393C85.8921 28.0382 85.8178 27.8318 85.6691 27.7203C85.5241 27.6088 85.3178 27.553 85.0501 27.553C84.7453 27.553 84.5092 27.6218 84.3419 27.7593C84.1746 27.8932 84.0909 28.1255 84.0909 28.4564V30.0903H83.5389V27.1348H84.0909V27.6422H84.1188C84.2898 27.2668 84.6523 27.079 85.2062 27.079C85.5966 27.079 85.8996 27.1664 86.1152 27.3411C86.3308 27.5121 86.4386 27.8058 86.4386 28.2222ZM90.2568 26.1868V30.0903H89.7047V29.6051H89.6824C89.5263 29.9658 89.1508 30.1461 88.556 30.1461H88.4556C87.9872 30.1461 87.6284 30.0364 87.3794 29.8171C87.1303 29.594 87.0057 29.2278 87.0057 28.7185V28.5122C87.0057 27.9954 87.1303 27.6274 87.3794 27.408C87.6284 27.1887 87.9872 27.079 88.4556 27.079H88.556C89.1508 27.079 89.5263 27.2593 89.6824 27.6199H89.7047V26.1868H90.2568ZM88.6341 29.6721C89.0095 29.6721 89.2809 29.607 89.4482 29.4769C89.6192 29.3468 89.7047 29.0847 89.7047 28.6906V28.5568C89.7047 28.1553 89.6192 27.8876 89.4482 27.7538C89.2809 27.6199 89.0095 27.553 88.6341 27.553C88.4445 27.553 88.2883 27.566 88.1656 27.592C88.0467 27.6144 87.937 27.6608 87.8366 27.7315C87.74 27.8021 87.6693 27.9043 87.6247 28.0382C87.5801 28.172 87.5578 28.3449 87.5578 28.5568V28.6627C87.5578 29.068 87.6415 29.3375 87.8087 29.4713C87.9798 29.6051 88.2549 29.6721 88.6341 29.6721ZM94.3959 30.1461H94.2899C93.1152 30.1461 92.459 29.8022 92.3215 29.1144H92.946C93.0241 29.3263 93.1821 29.4695 93.42 29.5438C93.6617 29.6182 93.9777 29.6553 94.368 29.6553C94.8253 29.6553 95.1654 29.6051 95.3885 29.5048C95.6116 29.4007 95.7231 29.2241 95.7231 28.975V28.9304C95.7231 28.7334 95.6617 28.594 95.5391 28.5122C95.4164 28.4304 95.1859 28.382 94.8476 28.3672L93.7602 28.3226C93.2955 28.304 92.9609 28.2148 92.7564 28.0549C92.5557 27.895 92.4553 27.6515 92.4553 27.3244V27.2909C92.4553 26.882 92.604 26.5864 92.9014 26.4043C93.2025 26.2221 93.6449 26.131 94.2286 26.131H94.3401C95.4554 26.131 96.0837 26.4823 96.225 27.185H95.606C95.5428 26.9693 95.3997 26.8225 95.1766 26.7444C94.9535 26.6626 94.6506 26.6217 94.2676 26.6217C93.8364 26.6217 93.5278 26.6701 93.3419 26.7667C93.1561 26.8634 93.0631 27.0214 93.0631 27.2407V27.2575C93.0631 27.4545 93.1226 27.5939 93.2416 27.6757C93.3642 27.7575 93.5947 27.8058 93.933 27.8207L95.0205 27.8653C95.4889 27.8839 95.8235 27.9731 96.0242 28.133C96.225 28.2928 96.3253 28.5363 96.3253 28.8635V28.9137C96.3253 29.3672 96.1599 29.6869 95.829 29.8728C95.4982 30.055 95.0205 30.1461 94.3959 30.1461ZM98.5638 30.1461H98.3798C97.8667 30.1461 97.4819 30.0327 97.2254 29.8059C96.9726 29.5754 96.8462 29.2074 96.8462 28.7018V28.5233C96.8462 28.0177 96.9726 27.6515 97.2254 27.4248C97.4819 27.1943 97.8667 27.079 98.3798 27.079H98.5638C99.0768 27.079 99.4597 27.1943 99.7125 27.4248C99.969 27.6515 100.097 28.0177 100.097 28.5233V28.7073C100.097 29.2129 99.969 29.5791 99.7125 29.8059C99.4597 30.0327 99.0768 30.1461 98.5638 30.1461ZM98.4746 29.6721C98.8463 29.6721 99.1177 29.6051 99.2887 29.4713C99.4597 29.3375 99.5452 29.068 99.5452 28.6627V28.5568C99.5452 28.1553 99.4597 27.8876 99.2887 27.7538C99.1177 27.6199 98.8463 27.553 98.4746 27.553C98.1028 27.553 97.8295 27.6199 97.6548 27.7538C97.4838 27.8876 97.3983 28.1571 97.3983 28.5624V28.6683C97.3983 28.8765 97.4206 29.0494 97.4652 29.1869C97.5135 29.3208 97.5879 29.423 97.6883 29.4936C97.7886 29.5643 97.8983 29.6126 98.0173 29.6386C98.14 29.6609 98.2924 29.6721 98.4746 29.6721ZM101.251 26.1868V30.0903H100.698V26.1868H101.251ZM101.912 29.0029V27.1348H102.459V28.8858C102.459 29.1869 102.531 29.3932 102.676 29.5048C102.825 29.6163 103.033 29.6721 103.301 29.6721C103.605 29.6721 103.842 29.6051 104.009 29.4713C104.176 29.3338 104.26 29.0996 104.26 28.7687V27.1348H104.812V30.0903H104.26V29.5828H104.232C104.061 29.9583 103.698 30.1461 103.144 30.1461C102.754 30.1461 102.451 30.0606 102.236 29.8895C102.02 29.7148 101.912 29.4193 101.912 29.0029ZM107.431 29.6498V30.0903H107.024C106.626 30.0903 106.347 30.0178 106.188 29.8728C106.031 29.7278 105.953 29.4732 105.953 29.1088V27.5753H105.228V27.1348H105.953V26.1868H106.505V27.1348H107.431V27.5753H106.505V29.0029C106.505 29.2743 106.554 29.4509 106.65 29.5327C106.751 29.6107 106.937 29.6498 107.208 29.6498H107.431ZM107.974 26.1868H108.526V26.6664H107.974V26.1868ZM107.974 27.1348H108.526V30.0903H107.974V27.1348ZM110.849 30.1461H110.665C110.152 30.1461 109.768 30.0327 109.511 29.8059C109.258 29.5754 109.132 29.2074 109.132 28.7018V28.5233C109.132 28.0177 109.258 27.6515 109.511 27.4248C109.768 27.1943 110.152 27.079 110.665 27.079H110.849C111.362 27.079 111.745 27.1943 111.998 27.4248C112.255 27.6515 112.383 28.0177 112.383 28.5233V28.7073C112.383 29.2129 112.255 29.5791 111.998 29.8059C111.745 30.0327 111.362 30.1461 110.849 30.1461ZM110.76 29.6721C111.132 29.6721 111.403 29.6051 111.574 29.4713C111.745 29.3375 111.831 29.068 111.831 28.6627V28.5568C111.831 28.1553 111.745 27.8876 111.574 27.7538C111.403 27.6199 111.132 27.553 110.76 27.553C110.388 27.553 110.115 27.6199 109.94 27.7538C109.769 27.8876 109.684 28.1571 109.684 28.5624V28.6683C109.684 28.8765 109.706 29.0494 109.751 29.1869C109.799 29.3208 109.874 29.423 109.974 29.4936C110.074 29.5643 110.184 29.6126 110.303 29.6386C110.426 29.6609 110.578 29.6721 110.76 29.6721ZM115.884 28.2222V30.0903H115.337V28.3393C115.337 28.0382 115.263 27.8318 115.114 27.7203C114.969 27.6088 114.763 27.553 114.495 27.553C114.19 27.553 113.954 27.6218 113.787 27.7593C113.62 27.8932 113.536 28.1255 113.536 28.4564V30.0903H112.984V27.1348H113.536V27.6422H113.564C113.735 27.2668 114.098 27.079 114.651 27.079C115.042 27.079 115.345 27.1664 115.56 27.3411C115.776 27.5121 115.884 27.8058 115.884 28.2222Z" fill="white"/>
</svg>
