<?xml version="1.0" standalone="no"?>
<!DOCTYPE svg PUBLIC "-//W3C//DTD SVG 20010904//EN"
 "http://www.w3.org/TR/2001/REC-SVG-20010904/DTD/svg10.dtd">
<svg version="1.0" xmlns="http://www.w3.org/2000/svg"
 width="816.000000pt" height="816.000000pt" viewBox="0 0 816.000000 816.000000"
 preserveAspectRatio="xMidYMid meet">
<metadata>
Created by potrace 1.14, written by Peter Selinger 2001-2017
</metadata>
<g transform="translate(0.000000,816.000000) scale(0.100000,-0.100000)"
fill="#000000" stroke="none">
<path d="M3677 8073 c-7 -14 -2 -158 6 -170 5 -7 5 -13 0 -13 -10 0 -10 -121
1 -138 4 -6 4 -12 -1 -12 -4 0 -8 -43 -8 -95 1 -107 9 -97 -100 -111 -27 -3
-59 -8 -70 -10 -11 -2 -38 -7 -60 -10 -22 -2 -68 -11 -103 -19 -34 -8 -75 -17
-92 -20 -16 -3 -39 -9 -52 -14 -13 -5 -27 -9 -33 -9 -12 -1 -93 -22 -115 -29
-40 -15 -58 -11 -64 12 -3 13 -20 54 -37 92 -17 37 -37 82 -44 98 -7 17 -26
59 -42 95 -16 36 -41 91 -54 122 -28 67 -16 67 -171 -2 -59 -26 -109 -45 -112
-42 -3 3 -6 0 -6 -6 0 -7 -7 -12 -15 -12 -8 0 -23 -4 -33 -10 -24 -13 -172
-80 -179 -80 -2 0 -32 -13 -66 -28 -34 -16 -81 -37 -105 -47 -48 -22 -48 -18
4 -133 19 -40 50 -112 70 -160 21 -48 41 -91 46 -96 4 -6 8 -18 8 -28 0 -10 5
-18 10 -18 6 0 10 -9 10 -19 0 -11 4 -23 10 -26 27 -16 6 -43 -69 -88 -125
-75 -324 -219 -420 -304 -20 -18 -43 -33 -51 -32 -8 0 -44 28 -80 62 -36 34
-108 100 -159 147 -52 47 -107 97 -123 113 -17 15 -33 27 -37 27 -4 0 -37 -33
-74 -74 -37 -41 -80 -88 -95 -104 -15 -16 -63 -69 -107 -117 -95 -104 -103
-112 -179 -193 l-59 -62 45 -43 c25 -23 72 -66 104 -96 238 -216 262 -242 236
-253 -23 -9 -196 -288 -285 -458 -52 -99 -68 -116 -92 -99 -10 7 -178 67 -205
74 -8 2 -59 19 -112 39 -54 19 -98 33 -98 29 0 -3 -11 2 -25 11 -13 9 -27 16
-30 16 -6 0 -27 -47 -30 -65 0 -5 -4 -17 -7 -25 -4 -8 -21 -60 -38 -115 -17
-55 -34 -107 -37 -115 -4 -8 -7 -18 -8 -22 -2 -5 -3 -9 -5 -10 -1 -2 -3 -10
-5 -18 -1 -8 -17 -58 -35 -110 -17 -52 -33 -102 -35 -110 -2 -8 -12 -41 -23
-73 -18 -53 -18 -59 -3 -64 9 -3 23 -7 31 -11 8 -3 18 -6 23 -7 4 -2 8 -3 10
-5 1 -1 9 -3 17 -5 18 -5 343 -118 383 -134 22 -8 27 -16 22 -31 -3 -11 -8
-31 -11 -45 -2 -14 -6 -37 -9 -52 -3 -16 -7 -48 -11 -73 -3 -25 -8 -54 -11
-65 -4 -11 -8 -36 -9 -55 -2 -19 -6 -57 -9 -85 -3 -27 -7 -99 -10 -160 -3 -60
-7 -111 -9 -113 -6 -5 -47 -11 -126 -16 -41 -3 -89 -8 -105 -10 -17 -3 -69 -7
-115 -11 -47 -3 -94 -7 -105 -10 -11 -2 -37 -4 -57 -4 l-38 -1 5 -57 c3 -32 7
-76 9 -98 2 -22 7 -71 11 -110 12 -136 15 -165 19 -207 2 -24 7 -79 11 -123 4
-44 9 -91 10 -105 2 -14 3 -33 4 -44 1 -20 21 -20 291 8 25 2 81 7 125 11 44
4 92 8 108 10 18 1 27 -2 27 -12 0 -26 54 -243 78 -313 3 -8 6 -20 7 -26 5
-20 76 -220 91 -252 19 -44 26 -38 -156 -138 -19 -10 -37 -22 -40 -25 -3 -3
-20 -12 -37 -20 -18 -8 -33 -17 -33 -21 0 -5 -4 -8 -9 -8 -9 0 -98 -49 -159
-87 -22 -13 -22 -16 -8 -32 9 -10 16 -20 16 -23 0 -3 51 -97 113 -209 63 -112
131 -235 152 -274 65 -118 70 -125 81 -125 6 0 48 20 93 45 45 25 86 45 91 45
6 0 10 5 10 12 0 6 3 8 7 5 3 -4 11 -3 17 2 13 10 108 62 181 99 28 14 53 29
56 34 6 9 32 -18 74 -78 17 -24 70 -90 125 -157 8 -11 36 -41 61 -68 26 -27
45 -49 43 -49 -1 0 33 -36 78 -80 l80 -79 -22 -28 c-11 -15 -43 -57 -69 -93
-27 -36 -89 -120 -139 -187 l-91 -122 32 -23 c18 -12 34 -25 37 -28 3 -3 21
-17 40 -30 19 -13 37 -27 40 -30 3 -3 21 -17 40 -30 19 -13 37 -27 40 -30 3
-4 88 -69 189 -145 l185 -138 18 24 c9 13 26 33 35 44 19 21 153 196 191 249
12 17 36 48 53 68 l30 37 47 -26 c25 -14 66 -38 91 -52 40 -24 110 -58 231
-114 19 -9 83 -36 143 -60 59 -24 105 -45 103 -48 -2 -2 -6 -17 -9 -34 -3 -16
-12 -57 -20 -90 -9 -33 -18 -71 -21 -85 -3 -14 -10 -43 -15 -65 -5 -22 -12
-51 -15 -65 -3 -14 -10 -43 -16 -65 -5 -22 -12 -54 -15 -71 -6 -33 -4 -34 80
-50 11 -2 76 -18 145 -35 69 -17 134 -32 145 -34 11 -3 40 -9 65 -15 25 -6 56
-13 70 -16 14 -3 61 -14 105 -25 141 -36 131 -39 150 44 9 40 19 83 21 97 3
14 7 33 10 42 3 9 7 27 10 40 3 13 7 32 9 43 3 11 7 29 9 40 2 11 12 49 21 85
10 36 18 71 18 78 0 10 11 12 41 8 101 -15 217 -20 427 -20 l227 0 23 -120
c13 -67 24 -128 25 -137 0 -9 5 -29 9 -45 8 -30 13 -59 20 -109 2 -16 5 -31 6
-32 3 -6 7 -24 8 -48 1 -29 2 -29 146 1 39 8 84 17 100 19 17 2 30 4 30 5 0 1
11 3 25 6 21 3 100 19 300 59 14 3 39 8 55 11 62 11 105 25 100 33 -2 5 -7 26
-11 46 -3 21 -8 47 -10 59 -3 11 -13 66 -24 121 -10 55 -21 111 -24 125 -21
88 -24 154 -8 156 6 1 13 2 15 4 1 1 9 3 17 5 13 3 142 47 180 62 8 3 20 7 25
9 9 2 62 24 148 62 22 9 82 38 135 64 53 26 99 45 102 43 3 -2 68 -98 145
-213 77 -116 144 -211 149 -211 8 -1 232 144 246 159 3 3 79 54 170 115 91 60
167 112 170 115 3 4 13 9 23 13 18 7 24 37 7 37 -5 0 -10 4 -10 10 0 5 -18 35
-40 67 -22 32 -45 65 -50 73 -6 8 -33 48 -60 88 -28 40 -50 77 -50 82 0 6 -3
10 -7 10 -5 0 -21 21 -37 46 l-29 46 27 22 c47 36 278 268 336 335 30 36 69
80 86 99 l30 35 45 -29 c24 -16 46 -31 49 -34 3 -3 17 -12 32 -20 15 -8 93
-57 174 -108 81 -51 150 -90 155 -85 15 16 249 385 249 394 0 5 5 9 10 9 6 0
10 7 10 15 0 8 5 15 10 15 6 0 10 4 10 9 0 10 28 55 90 147 l28 42 -29 21
c-15 11 -33 21 -39 21 -5 0 -10 3 -10 8 0 4 -9 12 -19 17 -39 20 -136 79 -141
85 -3 4 -10 9 -16 11 -5 2 -53 31 -106 63 -69 42 -96 65 -95 78 1 10 5 18 9
18 4 0 8 4 8 10 0 5 14 40 31 77 17 38 32 73 34 78 1 6 8 24 14 40 33 77 70
185 65 185 -4 0 -1 7 6 15 7 8 9 15 5 15 -4 0 -2 7 5 15 6 8 9 19 5 25 -3 5
-2 10 3 10 5 0 12 14 16 32 3 18 11 49 17 70 l10 39 55 -6 c30 -4 65 -8 77
-11 35 -7 68 -12 127 -19 30 -4 64 -9 75 -12 11 -2 34 -6 50 -8 72 -8 130 -17
136 -21 9 -5 21 25 24 61 1 17 8 64 14 105 7 41 14 95 17 120 3 25 8 59 11 75
6 35 10 62 17 130 3 28 8 61 10 75 4 25 15 99 21 152 5 32 0 34 -140 53 -16 2
-48 6 -70 10 -77 12 -90 14 -140 20 -78 10 -168 25 -171 28 -1 1 -4 92 -8 202
-5 184 -9 238 -20 320 -14 92 -17 163 -9 168 5 4 23 9 39 12 16 3 54 12 84 20
30 9 62 18 70 20 77 21 138 38 150 43 20 7 18 6 70 21 76 20 93 30 85 49 -4 9
-8 24 -10 32 -2 8 -20 74 -41 145 -20 72 -40 144 -44 160 -5 17 -18 64 -29
105 -12 41 -30 107 -41 147 -11 39 -24 82 -29 96 l-10 25 -228 -70 c-243 -73
-295 -86 -292 -72 5 21 -130 299 -211 434 -33 56 -60 105 -60 109 0 5 -9 16
-20 26 -19 18 -19 18 15 49 19 17 46 40 60 50 14 11 36 29 49 40 14 12 37 31
53 44 159 126 222 178 222 182 1 3 -9 17 -22 32 -12 14 -31 37 -41 50 -11 12
-33 39 -50 59 -17 20 -53 62 -81 94 -27 32 -60 70 -72 84 -13 14 -26 31 -30
36 -8 10 -22 27 -128 150 -27 32 -54 64 -58 72 -8 14 -30 0 -127 -83 -14 -12
-85 -72 -159 -134 l-133 -112 -36 34 c-20 18 -39 36 -42 39 -15 18 -177 152
-245 204 -44 33 -82 62 -85 65 -3 3 -17 11 -32 19 -16 8 -28 18 -28 23 0 4 -5
8 -11 8 -6 0 -17 6 -25 14 -7 8 -19 16 -25 18 -10 3 188 408 212 433 5 5 9 18
9 30 0 15 -23 31 -103 71 -56 28 -209 105 -340 172 l-237 122 -18 -38 c-9 -20
-20 -38 -24 -40 -5 -2 -8 -8 -8 -13 0 -5 -20 -51 -44 -102 -24 -51 -65 -136
-90 -189 -25 -54 -47 -98 -49 -98 -2 0 -37 12 -78 26 -41 14 -78 27 -84 28 -5
2 -30 9 -55 16 -51 15 -57 17 -85 24 -11 3 -46 12 -77 20 -32 9 -72 18 -90 21
-18 4 -53 11 -78 16 -25 6 -58 12 -75 15 -16 2 -50 6 -75 10 -25 3 -63 9 -85
13 l-40 7 -2 108 c-1 60 -4 118 -6 128 -3 10 -2 18 1 18 4 0 6 62 5 137 l-2
138 -380 3 c-209 1 -381 -1 -384 -5z"/>
</g>
</svg>
