<svg width="60" height="60" viewBox="0 0 60 60" fill="none" xmlns="http://www.w3.org/2000/svg">
<path d="M7.5 52.5H17.5L50 20C51.3261 18.6739 52.0711 16.8754 52.0711 15C52.0711 13.1247 51.3261 11.3261 50 10C48.6739 8.67394 46.8754 7.92896 45 7.92896C43.1246 7.92896 41.3261 8.67394 40 10L7.5 42.5V52.5Z" stroke="#FD8204" stroke-width="5" stroke-linecap="round" stroke-linejoin="round"/>
<path d="M36.25 13.75L46.25 23.75" stroke="#FD8204" stroke-width="5" stroke-linecap="round" stroke-linejoin="round"/>
<path d="M30 20L17.5 7.5L7.5 17.5L20 30" stroke="#FD8204" stroke-width="5" stroke-linecap="round" stroke-linejoin="round"/>
<path d="M17.5 20L13.75 23.75" stroke="#FD8204" stroke-width="5" stroke-linecap="round" stroke-linejoin="round"/>
<path d="M40 30L52.5 42.5L42.5 52.5L30 40" stroke="#FD8204" stroke-width="5" stroke-linecap="round" stroke-linejoin="round"/>
<path d="M40 42.5L36.25 46.25" stroke="#FD8204" stroke-width="5" stroke-linecap="round" stroke-linejoin="round"/>
</svg>
