<svg width="704" height="126" viewBox="0 0 704 126" fill="none" xmlns="http://www.w3.org/2000/svg">
<rect width="704" height="126" rx="8" fill="#F2F2F2"/>
<path d="M328.273 47.992V54.024C328.273 55.496 328.182 56.5733 328.001 57.256C327.83 57.928 327.441 58.408 326.833 58.696C326.225 58.984 325.233 59.128 323.857 59.128C322.481 59.128 321.489 58.984 320.881 58.696C320.273 58.408 319.878 57.928 319.697 57.256C319.526 56.5733 319.441 55.496 319.441 54.024V47.992H322.225V54.616C322.225 55.3733 322.252 55.896 322.305 56.184C322.358 56.472 322.492 56.664 322.705 56.76C322.918 56.856 323.302 56.904 323.857 56.904C324.412 56.904 324.796 56.856 325.009 56.76C325.222 56.664 325.356 56.472 325.409 56.184C325.462 55.896 325.489 55.3733 325.489 54.616V47.992H328.273ZM331.161 47.992H336.393C337.375 47.992 338.116 48.136 338.617 48.424C339.119 48.712 339.449 49.1173 339.609 49.64C339.78 50.1627 339.865 50.8613 339.865 51.736C339.865 52.5573 339.785 53.2293 339.625 53.752C339.476 54.2747 339.145 54.6907 338.633 55C338.132 55.3093 337.385 55.464 336.393 55.464H333.945V59H331.161V47.992ZM335.241 53.24C335.807 53.24 336.212 53.208 336.457 53.144C336.703 53.0693 336.863 52.936 336.937 52.744C337.012 52.5413 337.049 52.2053 337.049 51.736C337.049 51.2667 337.012 50.936 336.937 50.744C336.863 50.5413 336.703 50.408 336.457 50.344C336.223 50.2693 335.817 50.232 335.241 50.232H333.945V53.24H335.241ZM342.208 59V47.992H344.992V56.632H349.36V59H342.208ZM356.031 59.128C354.485 59.128 353.381 58.968 352.719 58.648C352.069 58.3173 351.658 57.7947 351.487 57.08C351.327 56.3653 351.247 55.1707 351.247 53.496C351.247 51.8213 351.327 50.6267 351.487 49.912C351.658 49.1973 352.069 48.68 352.719 48.36C353.381 48.0293 354.485 47.864 356.031 47.864C357.578 47.864 358.677 48.0293 359.327 48.36C359.989 48.68 360.399 49.1973 360.559 49.912C360.719 50.6267 360.799 51.8213 360.799 53.496C360.799 55.1707 360.719 56.3653 360.559 57.08C360.399 57.7947 359.989 58.3173 359.327 58.648C358.677 58.968 357.578 59.128 356.031 59.128ZM356.031 56.872C356.725 56.872 357.189 56.8187 357.423 56.712C357.658 56.5947 357.807 56.3333 357.871 55.928C357.935 55.5227 357.967 54.712 357.967 53.496C357.967 52.28 357.935 51.4693 357.871 51.064C357.807 50.6587 357.658 50.4027 357.423 50.296C357.189 50.1787 356.725 50.12 356.031 50.12C355.338 50.12 354.869 50.1787 354.623 50.296C354.378 50.4027 354.223 50.664 354.159 51.08C354.095 51.496 354.063 52.3013 354.063 53.496C354.063 54.6907 354.095 55.496 354.159 55.912C354.223 56.328 354.378 56.5947 354.623 56.712C354.869 56.8187 355.338 56.872 356.031 56.872ZM370.432 59L369.776 56.92H365.856L365.232 59H362.448L365.968 47.992H369.744L373.264 59H370.432ZM367.84 50.456H367.76L366.496 54.664H369.12L367.84 50.456ZM375.206 47.992H379.094C380.715 47.992 381.872 48.1573 382.566 48.488C383.259 48.808 383.691 49.32 383.862 50.024C384.032 50.7173 384.118 51.8747 384.118 53.496C384.118 55.1173 384.032 56.28 383.862 56.984C383.691 57.6773 383.259 58.1893 382.566 58.52C381.872 58.84 380.715 59 379.094 59H375.206V47.992ZM379.03 56.744C379.851 56.744 380.395 56.696 380.662 56.6C380.939 56.4933 381.11 56.248 381.174 55.864C381.248 55.4693 381.286 54.68 381.286 53.496C381.286 52.3227 381.248 51.5387 381.174 51.144C381.099 50.7493 380.923 50.504 380.646 50.408C380.379 50.3013 379.84 50.248 379.03 50.248H377.974V56.744H379.03ZM303.307 78V69.36H300.267V66.992H309.147V69.36H306.091V78H303.307ZM317.466 78V73.68H313.946V78H311.162V66.992H313.946V71.28H317.466V66.992H320.25V78H317.466ZM331.929 66.992V73.024C331.929 74.496 331.838 75.5733 331.657 76.256C331.486 76.928 331.097 77.408 330.489 77.696C329.881 77.984 328.889 78.128 327.513 78.128C326.137 78.128 325.145 77.984 324.537 77.696C323.929 77.408 323.534 76.928 323.353 76.256C323.182 75.5733 323.097 74.496 323.097 73.024V66.992H325.881V73.616C325.881 74.3733 325.908 74.896 325.961 75.184C326.014 75.472 326.148 75.664 326.361 75.76C326.574 75.856 326.958 75.904 327.513 75.904C328.068 75.904 328.452 75.856 328.665 75.76C328.878 75.664 329.012 75.472 329.065 75.184C329.118 74.896 329.145 74.3733 329.145 73.616V66.992H331.929ZM334.785 78V66.992H337.569V78H334.785ZM349.896 78V70.992H349.784L347.432 78H345.544L343.192 70.992H343.08V78H340.488V66.992H344.312L346.488 73.344H346.6L348.76 66.992H352.568V78H349.896ZM355.519 66.992H361.055C362.133 66.992 362.938 67.2213 363.471 67.68C364.005 68.1387 364.271 68.832 364.271 69.76C364.271 70.5387 364.117 71.1307 363.807 71.536C363.509 71.9307 363.023 72.2027 362.351 72.352V72.416C363.077 72.576 363.594 72.848 363.903 73.232C364.213 73.616 364.367 74.2293 364.367 75.072C364.367 76.0427 364.106 76.7733 363.583 77.264C363.071 77.7547 362.223 78 361.039 78H355.519V66.992ZM360.047 71.376C360.442 71.376 360.735 71.3493 360.927 71.296C361.119 71.232 361.253 71.1253 361.327 70.976C361.402 70.8267 361.439 70.6027 361.439 70.304C361.439 69.9947 361.402 69.7653 361.327 69.616C361.263 69.4667 361.135 69.3653 360.943 69.312C360.762 69.2587 360.463 69.232 360.047 69.232H358.287V71.376H360.047ZM360.127 75.76C360.533 75.76 360.831 75.7333 361.023 75.68C361.215 75.616 361.349 75.5093 361.423 75.36C361.498 75.2107 361.535 74.976 361.535 74.656C361.535 74.3253 361.498 74.08 361.423 73.92C361.359 73.76 361.226 73.6533 361.023 73.6C360.831 73.536 360.533 73.504 360.127 73.504H358.287V75.76H360.127ZM373.499 78L369.691 71.712H369.611V78H366.955V66.992H369.819L373.355 72.704H373.435V66.992H376.107V78H373.499ZM385.993 78L385.337 75.92H381.417L380.793 78H378.009L381.529 66.992H385.305L388.825 78H385.993ZM383.401 69.456H383.321L382.057 73.664H384.681L383.401 69.456ZM390.735 78V66.992H393.519V78H390.735ZM396.47 78V66.992H399.254V75.632H403.622V78H396.47Z" fill="#ADADAD"/>
</svg>
